<svg width="24" height="24" viewBox="0 0 24 24" fill="none" xmlns="http://www.w3.org/2000/svg">
<path d="M16.0229 4.2015L16.0687 4.11263L16.0229 4.2015C17.6459 5.03871 18.9617 6.35837 19.7949 7.97009L16.6873 9.26365C16.1699 8.37748 15.409 7.65146 14.4882 7.17648C13.5675 6.70149 12.5348 6.5023 11.5128 6.5944L10.7655 3.31227C12.5618 3.05699 14.3999 3.36426 16.0229 4.2015ZM4.0715 7.67986L4.12625 7.59618L4.07151 7.67986L7.24946 9.75873C7.83056 10.1389 8.54332 9.94384 8.92135 9.48167C9.1024 9.26036 9.30679 9.05919 9.53097 8.8817L9.53098 8.8817C9.99908 8.51104 10.2054 7.80149 9.83459 7.2144L7.80652 4.00379C7.4513 3.44144 6.6777 3.24002 6.09214 3.65456C5.19207 4.29171 4.40098 5.07033 3.74959 5.96013C3.32578 6.53904 3.51489 7.31573 4.0715 7.67986ZM15.5039 13.8823L15.592 13.9297L15.5039 13.8823C15.1492 14.5427 14.6151 15.0893 13.9631 15.4593C13.3112 15.8293 12.568 16.0075 11.8192 15.9734C11.2117 15.9458 10.6205 15.7793 10.0903 15.4891C9.56653 15.2024 8.83265 15.2888 8.43647 15.8591L6.26992 18.9779C5.89044 19.5242 6.00638 20.3151 6.61632 20.6929C8.09672 21.6098 9.78966 22.135 11.5351 22.2144C13.4601 22.3021 15.3707 21.8439 17.0467 20.8928C18.7226 19.9417 20.0956 18.5365 21.0076 16.8389L20.9195 16.7915L21.0076 16.8389C21.8345 15.2996 22.2517 13.5769 22.2237 11.8358C22.2122 11.1184 21.5926 10.6133 20.929 10.659L17.1405 10.9196C16.4477 10.9673 15.9972 11.553 15.9747 12.1497C15.952 12.7537 15.7917 13.3466 15.5039 13.8823ZM8.07993 12.6735L7.98137 12.6904L8.07993 12.6735C8.0095 12.2636 8.00396 11.846 8.06269 11.4361C8.14735 10.845 7.80888 10.1881 7.1358 10.0173L3.45505 9.08292C2.81036 8.91926 2.11041 9.30535 1.97071 10.0091C1.72736 11.2349 1.71051 12.4965 1.92262 13.7312C2.13473 14.9659 2.57167 16.1496 3.21016 17.2239C3.57669 17.8407 4.36538 17.9711 4.91849 17.6016L8.07639 15.4925C8.65387 15.1068 8.75371 14.3746 8.47663 13.8457C8.28446 13.4788 8.15034 13.0834 8.07993 12.6735ZM3.34544 10.5511L6.60811 11.3793C6.54924 11.8907 6.56328 12.4092 6.65087 12.919C6.73843 13.4288 6.89822 13.9222 7.12441 14.3846L4.32519 16.2542C3.84842 15.3941 3.51878 14.4583 3.35168 13.4857C3.18461 12.5131 3.18307 11.521 3.34544 10.5511ZM21.2201 7.57947C20.2598 5.57643 18.6705 3.93568 16.6877 2.91285C14.7049 1.89001 12.4466 1.54599 10.2578 1.92453C9.5509 2.04678 9.14746 2.73691 9.29512 3.38552L10.1382 7.08827C10.2923 7.76539 10.9407 8.11996 11.5336 8.04993C12.318 7.95731 13.1159 8.1001 13.8235 8.46512C14.5311 8.83017 15.1099 9.39753 15.4892 10.0904C15.7758 10.6142 16.4405 10.9369 17.0816 10.6701L20.5876 9.21077C21.2017 8.95512 21.5302 8.22634 21.2201 7.57947ZM7.89565 8.44876L5.0787 6.60602C5.55168 5.99912 6.10245 5.45702 6.71681 4.99376L8.5145 7.83968C8.29227 8.02584 8.08533 8.22953 7.89565 8.44876ZM16.7813 14.5685C17.1502 13.8818 17.3655 13.1264 17.416 12.3541L20.7742 12.123C20.7545 13.527 20.398 14.9096 19.7302 16.1527C18.9476 17.6095 17.7693 18.8156 16.331 19.6318C14.8927 20.448 13.2531 20.8411 11.6011 20.766C10.1914 20.7018 8.82164 20.2988 7.60625 19.5958L9.52671 16.8312C10.2156 17.1839 10.9746 17.3865 11.7533 17.4219C12.7751 17.4684 13.7892 17.2252 14.6788 16.7204L14.6294 16.6334L14.6788 16.7204C15.5684 16.2155 16.2972 15.4696 16.7813 14.5685Z" fill="#52525B" stroke="#52525B" stroke-width="0.2"/>
</svg>
