<svg width="24" height="24" viewBox="0 0 24 24" fill="none" xmlns="http://www.w3.org/2000/svg">
<path d="M22.3019 10.1598L20.2933 9.96619C20.0776 9.10985 19.7321 8.29157 19.2688 7.53975L20.55 5.99265C20.6021 5.92971 20.6289 5.8496 20.625 5.76797C20.6212 5.68635 20.5871 5.60909 20.5293 5.55132L18.394 3.41602C18.3362 3.35825 18.259 3.32412 18.1774 3.3203C18.0958 3.31648 18.0157 3.34324 17.9527 3.39535L16.4079 4.67466C15.6567 4.209 14.8372 3.86392 13.9792 3.65199L13.7856 1.64349C13.7778 1.56228 13.74 1.4869 13.6796 1.43205C13.6192 1.3772 13.5406 1.34681 13.459 1.34682H10.541C10.4594 1.34681 10.3808 1.3772 10.3204 1.43205C10.26 1.4869 10.2222 1.56228 10.2144 1.64349L10.0208 3.65199C9.16276 3.86392 8.34324 4.209 7.59205 4.67466L6.04724 3.39535C5.98431 3.34324 5.90421 3.31648 5.8226 3.3203C5.74098 3.32412 5.66373 3.35825 5.60596 3.41602L3.47066 5.55132C3.41287 5.60909 3.37872 5.68635 3.37489 5.76797C3.37106 5.8496 3.39782 5.92971 3.44994 5.99265L4.73118 7.53975C4.26789 8.29157 3.92239 9.10985 3.70668 9.96619L1.69808 10.1598C1.6169 10.1676 1.54156 10.2054 1.48673 10.2658C1.43191 10.3262 1.40154 10.4049 1.40155 10.4864V13.5136C1.40155 13.5952 1.43193 13.6739 1.48677 13.7343C1.54161 13.7946 1.61698 13.8324 1.69818 13.8403L3.70668 14.0339C3.91858 14.8919 4.26362 15.7113 4.72925 16.4625L3.44999 18.0074C3.39787 18.0703 3.37111 18.1505 3.37494 18.2321C3.37877 18.3137 3.41292 18.391 3.47071 18.4487L5.606 20.584C5.66378 20.6418 5.74103 20.6759 5.82264 20.6798C5.90426 20.6836 5.98436 20.6568 6.04728 20.6047L7.59444 19.3235C8.34624 19.7867 9.16451 20.1322 10.0208 20.348L10.2144 22.3566C10.2222 22.4378 10.26 22.5132 10.3204 22.568C10.3808 22.6229 10.4595 22.6532 10.5411 22.6532H13.459C13.5406 22.6532 13.6193 22.6229 13.6796 22.568C13.74 22.5132 13.7778 22.4378 13.7856 22.3566L13.9792 20.348C14.8356 20.1322 15.6538 19.7868 16.4056 19.3235L17.9528 20.6047C18.0157 20.6568 18.0958 20.6836 18.1774 20.6798C18.259 20.6759 18.3363 20.6418 18.3941 20.584L20.5294 18.4487C20.5871 18.391 20.6213 18.3137 20.6251 18.2321C20.629 18.1505 20.6022 18.0703 20.5501 18.0074L19.2707 16.4625C19.7364 15.7113 20.0815 14.8918 20.2934 14.0338L22.3019 13.8402C22.3831 13.8324 22.4585 13.7946 22.5133 13.7342C22.5681 13.6738 22.5985 13.5952 22.5985 13.5136V10.4864C22.5985 10.4048 22.5681 10.3262 22.5133 10.2658C22.4585 10.2054 22.3831 10.1676 22.3019 10.1598ZM21.9422 13.2156L19.9954 13.4031C19.9262 13.4098 19.8608 13.4383 19.8088 13.4846C19.7568 13.5308 19.7209 13.5924 19.7062 13.6604C19.502 14.6033 19.1241 15.5001 18.5916 16.3047C18.5525 16.3634 18.5333 16.4332 18.537 16.5037C18.5406 16.5742 18.5669 16.6416 18.6119 16.696L19.8541 18.196L18.1413 19.9088L16.6413 18.6666C16.5876 18.6221 16.5211 18.5959 16.4515 18.5918C16.3819 18.5876 16.3127 18.6058 16.2541 18.6436C15.4459 19.1727 14.5487 19.5512 13.6057 19.7609C13.5377 19.7756 13.4761 19.8115 13.4298 19.8635C13.3836 19.9155 13.3551 19.9808 13.3484 20.0501L13.1609 21.9968H10.839L10.6515 20.0501C10.6448 19.9808 10.6163 19.9155 10.57 19.8635C10.5238 19.8115 10.4622 19.7756 10.3942 19.7609C9.45121 19.5512 8.55395 19.1727 7.74575 18.6436C7.68715 18.6058 7.61802 18.5876 7.5484 18.5918C7.47877 18.5959 7.41228 18.6221 7.35857 18.6666L5.8588 19.9088L4.14599 18.196L5.38818 16.696C5.4332 16.6416 5.45949 16.5742 5.46315 16.5037C5.4668 16.4332 5.44763 16.3634 5.40847 16.3047C4.87598 15.5001 4.49796 14.6035 4.29374 13.6605C4.27903 13.5925 4.24309 13.5309 4.1911 13.4847C4.13911 13.4385 4.07377 13.4099 4.00452 13.4033L2.05775 13.2158V10.7844L4.00452 10.5969C4.07377 10.5903 4.13911 10.5617 4.1911 10.5155C4.24309 10.4693 4.27903 10.4077 4.29374 10.3397C4.50335 9.39671 4.88187 8.49944 5.411 7.69125C5.44881 7.63265 5.46697 7.56352 5.46283 7.4939C5.45869 7.42427 5.43248 7.35778 5.38799 7.30407L4.1458 5.80407L5.85861 4.09125L7.35838 5.33344C7.41274 5.37845 7.48017 5.40474 7.55065 5.4084C7.62113 5.41205 7.69092 5.39289 7.74964 5.35374C8.55425 4.82133 9.45095 4.44337 10.3939 4.23919C10.4619 4.22449 10.5235 4.18855 10.5698 4.13657C10.616 4.08458 10.6445 4.01923 10.6512 3.94997L10.8387 2.00321H13.1607L13.3482 3.94997C13.3548 4.01923 13.3834 4.08458 13.4296 4.13657C13.4759 4.18855 13.5374 4.22449 13.6055 4.23919C14.5484 4.44337 15.4451 4.82132 16.2497 5.35374C16.3084 5.39289 16.3782 5.41205 16.4487 5.4084C16.5192 5.40474 16.5866 5.37845 16.641 5.33344L18.141 4.09125L19.8538 5.80407L18.6116 7.30407C18.5671 7.35778 18.5409 7.42427 18.5368 7.4939C18.5326 7.56352 18.5508 7.63265 18.5886 7.69125C19.1177 8.49944 19.4962 9.39671 19.7059 10.3397C19.7206 10.4077 19.7565 10.4693 19.8085 10.5155C19.8605 10.5617 19.9258 10.5903 19.9951 10.5969L21.9418 10.7844V13.2156H21.9422Z" fill="#27272A" stroke="#27272A" stroke-width="0.4"/>
<path d="M12.0411 5.57812C8.50011 5.57812 5.61926 8.45897 5.61926 12C5.61926 15.541 8.50011 18.4219 12.0411 18.4219C15.5822 18.4219 18.463 15.541 18.463 12C18.463 8.45897 15.5822 5.57812 12.0411 5.57812ZM12.0411 17.7656C10.9008 17.7656 9.78608 17.4275 8.83793 16.7939C7.88978 16.1604 7.15078 15.2599 6.7144 14.2064C6.27801 13.1529 6.16383 11.9936 6.3863 10.8752C6.60877 9.75676 7.15789 8.72942 7.96423 7.92309C8.77056 7.11675 9.7979 6.56763 10.9163 6.34516C12.0347 6.12269 13.194 6.23687 14.2475 6.67326C15.3011 7.10964 16.2015 7.84864 16.8351 8.79679C17.4686 9.74494 17.8068 10.8597 17.8068 12C17.805 13.5286 17.197 14.9941 16.1161 16.075C15.0353 17.1559 13.5697 17.7639 12.0411 17.7656Z" fill="#27272A" stroke="#27272A" stroke-width="0.4"/>
<path d="M12.0115 9.47057C12.311 9.47022 12.5981 9.35108 12.8099 9.1393C13.0217 8.92752 13.1408 8.64039 13.1411 8.34089V8.00156C13.1411 7.70195 13.0221 7.41461 12.8103 7.20275C12.5984 6.99089 12.3111 6.87187 12.0115 6.87187C11.7119 6.87187 11.4245 6.99089 11.2127 7.20275C11.0008 7.41461 10.8818 7.70195 10.8818 8.00156V8.34093C10.8821 8.64043 11.0013 8.92755 11.2131 9.13932C11.4248 9.35109 11.712 9.47022 12.0115 9.47057ZM11.4443 8.00147C11.4443 7.85104 11.504 7.70677 11.6104 7.6004C11.7168 7.49404 11.861 7.43428 12.0115 7.43428C12.1619 7.43428 12.3062 7.49404 12.4125 7.6004C12.5189 7.70677 12.5786 7.85104 12.5786 8.00147V8.34084C12.5786 8.49127 12.5189 8.63553 12.4125 8.7419C12.3062 8.84827 12.1619 8.90803 12.0115 8.90803C11.861 8.90803 11.7168 8.84827 11.6104 8.7419C11.504 8.63553 11.4443 8.49127 11.4443 8.34084V8.00147Z" fill="#27272A" stroke="#27272A" stroke-width="0.4"/>
<path d="M13.0346 9.65471H12.8203C12.773 9.65471 12.7265 9.66664 12.685 9.68938C12.6436 9.71212 12.6085 9.74495 12.5831 9.78483L12.3862 10.0936L12.1651 9.96985C12.1221 9.94578 12.0735 9.93344 12.0242 9.93408C11.9749 9.93471 11.9267 9.94829 11.8843 9.97346L11.7008 10.0823L11.5321 9.79388C11.5073 9.75152 11.4718 9.71639 11.4293 9.69197C11.3867 9.66756 11.3385 9.65471 11.2894 9.65471H11.0478C10.7407 9.65506 10.4462 9.77722 10.2291 9.9944C10.0119 10.2116 9.88974 10.506 9.8894 10.8132V13.0495C9.88941 13.1093 9.90847 13.1675 9.94383 13.2158L10.6016 14.1129L10.7481 16.3723C10.7558 16.5758 10.8423 16.7684 10.9893 16.9094C11.1363 17.0504 11.3323 17.1288 11.5359 17.1281H12.5507C12.7543 17.1288 12.9503 17.0504 13.0973 16.9095C13.2443 16.7685 13.3308 16.576 13.3386 16.3725L13.4851 14.1123L14.1388 13.2145C14.1738 13.1664 14.1926 13.1085 14.1926 13.049V10.813C14.1923 10.506 14.0702 10.2116 13.8531 9.99442C13.636 9.77726 13.3416 9.65509 13.0346 9.65471ZM13.6303 12.9576L12.9825 13.8474C12.9511 13.8904 12.9327 13.9415 12.9292 13.9947L12.7772 16.3397C12.777 16.3424 12.7769 16.3451 12.7768 16.3478C12.7748 16.4063 12.7502 16.4619 12.708 16.5026C12.6658 16.5433 12.6094 16.5659 12.5508 16.5657H11.5359C11.4773 16.5659 11.4209 16.5433 11.3787 16.5026C11.3365 16.4619 11.3119 16.4063 11.31 16.3478C11.31 16.3451 11.3098 16.3424 11.3095 16.3397L11.1575 13.9947C11.154 13.9412 11.1354 13.8898 11.1037 13.8466L10.4519 12.9575V10.8132C10.452 10.6552 10.5149 10.5037 10.6266 10.392C10.7383 10.2802 10.8898 10.2174 11.0478 10.2172H11.1281L11.3585 10.611C11.3833 10.6533 11.4188 10.6884 11.4614 10.7128C11.504 10.7372 11.5522 10.7501 11.6013 10.75C11.6528 10.75 11.7033 10.7358 11.7473 10.709L12.0319 10.5402L12.3434 10.7145C12.406 10.7495 12.4797 10.7593 12.5494 10.7417C12.619 10.7242 12.6793 10.6807 12.7179 10.6201L12.9744 10.2175H13.0343C13.1923 10.2177 13.3437 10.2805 13.4554 10.3922C13.567 10.5038 13.6298 10.6552 13.63 10.8132V12.9579L13.6303 12.9576Z" fill="#27272A" stroke="#27272A" stroke-width="0.4"/>
</svg>
