<svg width="24" height="24" viewBox="0 0 24 24" fill="none" xmlns="http://www.w3.org/2000/svg">
<path d="M17.3914 20.963L18.2913 21.8593C18.3594 21.93 18.397 22.0245 18.3962 22.1226C18.3954 22.2207 18.3561 22.3146 18.2869 22.3841C18.2177 22.4536 18.124 22.4932 18.0259 22.4944C17.9278 22.4957 17.8331 22.4584 17.7622 22.3907L16.9543 21.5863C16.2373 21.5032 12.6737 21.0915 9.75849 20.7727C9.04251 20.7489 8.48112 20.0573 8.00854 19.5934C7.97338 19.5573 7.94585 19.5144 7.9276 19.4674C7.90935 19.4204 7.90075 19.3702 7.90231 19.3198C7.90386 19.2694 7.91555 19.2199 7.93667 19.1741C7.95779 19.1283 7.98791 19.0872 8.02523 19.0533C8.06255 19.0194 8.10632 18.9934 8.15392 18.9768C8.20152 18.9601 8.25197 18.9533 8.30229 18.9565C8.3526 18.9598 8.40173 18.9732 8.44677 18.9959C8.4918 19.0186 8.53181 19.0501 8.5644 19.0885C8.89243 19.381 9.34897 20.0205 9.83775 20.027C13.1 20.3837 17.17 20.8563 17.17 20.8563C17.2537 20.8659 17.3317 20.9035 17.3914 20.963ZM2.88264 12.1049C2.57019 12.4181 2.39471 12.8425 2.39471 13.2849C2.39471 13.7274 2.57019 14.1517 2.88264 14.465L6.683 18.2651C6.71778 18.3001 6.75912 18.328 6.80467 18.347C6.85021 18.366 6.89906 18.3758 6.94841 18.3759C6.99776 18.376 7.04665 18.3663 7.09226 18.3475C7.13787 18.3286 7.17931 18.3009 7.2142 18.2661C7.2491 18.2312 7.27676 18.1897 7.29561 18.1441C7.31445 18.0985 7.32411 18.0496 7.32402 18.0003C7.32393 17.9509 7.3141 17.9021 7.29509 17.8565C7.27608 17.811 7.24827 17.7696 7.21325 17.7348L3.41292 13.9347C3.32759 13.8494 3.25991 13.7481 3.21373 13.6366C3.16755 13.5251 3.14378 13.4056 3.14378 13.2849C3.14379 13.1643 3.16755 13.0448 3.21373 12.9333C3.25991 12.8218 3.32759 12.7205 3.41292 12.6352C3.49825 12.5499 3.59955 12.4822 3.71103 12.436C3.82251 12.3898 3.942 12.3661 4.06267 12.3661C4.18334 12.3661 4.30283 12.3898 4.41431 12.436C4.5258 12.4822 4.6271 12.5499 4.71242 12.6352L8.76714 16.6901C8.91835 16.9876 9.14869 17.2376 9.43281 17.4126C9.71694 17.5876 10.0438 17.6808 10.3775 17.682L13.9915 17.6847C14.0909 17.6848 14.1864 17.6454 14.2568 17.5751C14.3272 17.5049 14.3668 17.4095 14.3669 17.3101C14.367 17.2106 14.3275 17.1152 14.2573 17.0448C14.187 16.9744 14.0917 16.9348 13.9922 16.9347L10.3779 16.932C10.0944 16.932 9.82251 16.8193 9.62204 16.6189C9.42157 16.4184 9.30895 16.1465 9.30895 15.863C9.30895 15.5795 9.42157 15.3076 9.62204 15.1071C9.82251 14.9067 10.0944 14.794 10.3779 14.794H16.0146C16.3793 14.7977 16.7281 14.9438 16.9866 15.2011L20.9658 19.1856C21.0005 19.2207 21.0418 19.2487 21.0874 19.2678C21.1329 19.2869 21.1818 19.2968 21.2312 19.2969C21.2806 19.2971 21.3296 19.2875 21.3752 19.2687C21.4209 19.2499 21.4624 19.2222 21.4974 19.1873C21.5323 19.1524 21.56 19.1109 21.5789 19.0653C21.5978 19.0196 21.6075 18.9707 21.6074 18.9213C21.6073 18.8719 21.5974 18.823 21.5784 18.7774C21.5593 18.7318 21.5315 18.6905 21.4964 18.6557L17.517 14.671C17.118 14.274 16.5796 14.0489 16.0168 14.044H10.3779C9.96444 14.0439 9.56337 14.1851 9.24111 14.4441C8.91885 14.7031 8.69472 15.0645 8.60585 15.4682L5.24269 12.1049C4.92942 11.7926 4.50507 11.6171 4.06267 11.6171C3.62027 11.6171 3.19592 11.7925 2.88264 12.1049ZM11.1793 7.05318C10.635 6.69579 10.2205 6.1723 9.99756 5.56052C9.77459 4.94874 9.75499 4.28134 9.94168 3.65754C10.1284 3.03373 10.5114 2.48682 11.0338 2.09811C11.5561 1.70939 12.19 1.49963 12.8412 1.5C16.8501 1.65125 16.8495 7.40217 12.8412 7.55312C11.9506 7.55497 11.077 7.79716 10.3126 8.25414C9.54816 8.71111 8.92124 9.36593 8.49796 10.1495C8.39096 10.3514 8.33769 10.5774 8.34329 10.8058C8.34889 11.0343 8.41315 11.2574 8.52991 11.4538C8.64667 11.6502 8.812 11.8132 9.00999 11.9273C9.20799 12.0413 9.43199 12.1025 9.66046 12.1049L16.0204 12.1049C16.249 12.1025 16.473 12.0413 16.6711 11.9272C16.8691 11.8131 17.0345 11.65 17.1512 11.4535C17.268 11.257 17.3322 11.0337 17.3377 10.8052C17.3432 10.5768 17.2898 10.3507 17.1826 10.1488C16.7844 9.4141 16.2082 8.79111 15.5067 8.33698C15.4652 8.31038 15.4294 8.27588 15.4013 8.23545C15.3731 8.19501 15.3533 8.14944 15.3428 8.10132C15.3322 8.0532 15.3313 8.00349 15.34 7.95501C15.3487 7.90653 15.3669 7.86024 15.3935 7.81879C15.4201 7.77734 15.4546 7.74152 15.495 7.7134C15.5355 7.68528 15.581 7.6654 15.6292 7.65489C15.6773 7.64438 15.727 7.64346 15.7755 7.65216C15.8239 7.66087 15.8702 7.67904 15.9117 7.70563C16.7197 8.22838 17.3835 8.94568 17.8421 9.79172C18.0099 10.108 18.0934 10.4621 18.0846 10.82C18.0758 11.1779 17.9751 11.5275 17.7921 11.8352C17.6091 12.143 17.35 12.3984 17.0398 12.577C16.7295 12.7555 16.3785 12.8513 16.0205 12.8549L9.66053 12.8549C9.30273 12.8512 8.95189 12.7556 8.64173 12.5772C8.33157 12.3987 8.07251 12.1436 7.88944 11.8361C7.70638 11.5287 7.60546 11.1793 7.59639 10.8216C7.58732 10.4639 7.6704 10.1099 7.83765 9.79358C8.54784 8.47624 9.74838 7.4917 11.1793 7.05318ZM12.8427 6.80301C15.8493 6.7059 15.8488 2.34572 12.8412 2.25C12.2374 2.2502 11.6585 2.49024 11.2317 2.91731C11.0204 3.12878 10.8528 3.37979 10.7385 3.65603C10.6241 3.93227 10.5654 4.22832 10.5655 4.52727C10.5656 4.82623 10.6245 5.12223 10.739 5.39839C10.8535 5.67455 11.0213 5.92546 11.2328 6.13678C11.6598 6.56356 12.239 6.80321 12.8427 6.80301Z" fill="#27272A" stroke="#27272A" stroke-width="0.8"/>
</svg>
