<svg width="24" height="24" viewBox="0 0 24 24" fill="none" xmlns="http://www.w3.org/2000/svg">
<path d="M13.5 9C13.2239 9 13 8.77614 13 8.5V3.5C13 3.22386 13.2239 3 13.5 3H20.5C20.7761 3 21 3.22386 21 3.5V8.5C21 8.77614 20.7761 9 20.5 9H13.5ZM3.5 13C3.22386 13 3 12.7761 3 12.5V3.5C3 3.22386 3.22386 3 3.5 3H10.5C10.7761 3 11 3.22386 11 3.5V12.5C11 12.7761 10.7761 13 10.5 13H3.5ZM13.5 21C13.2239 21 13 20.7761 13 20.5V11.5C13 11.2239 13.2239 11 13.5 11H20.5C20.7761 11 21 11.2239 21 11.5V20.5C21 20.7761 20.7761 21 20.5 21H13.5ZM3.5 21C3.22386 21 3 20.7761 3 20.5V15.5C3 15.2239 3.22386 15 3.5 15H10.5C10.7761 15 11 15.2239 11 15.5V20.5C11 20.7761 10.7761 21 10.5 21H3.5ZM5 10.5C5 10.7761 5.22386 11 5.5 11H8.5C8.77614 11 9 10.7761 9 10.5V5.5C9 5.22386 8.77614 5 8.5 5H5.5C5.22386 5 5 5.22386 5 5.5V10.5ZM15 18.5C15 18.7761 15.2239 19 15.5 19H18.5C18.7761 19 19 18.7761 19 18.5V13.5C19 13.2239 18.7761 13 18.5 13H15.5C15.2239 13 15 13.2239 15 13.5V18.5ZM15 6.5C15 6.77614 15.2239 7 15.5 7H18.5C18.7761 7 19 6.77614 19 6.5V5.5C19 5.22386 18.7761 5 18.5 5H15.5C15.2239 5 15 5.22386 15 5.5V6.5ZM5 18.5C5 18.7761 5.22386 19 5.5 19H8.5C8.77614 19 9 18.7761 9 18.5V17.5C9 17.2239 8.77614 17 8.5 17H5.5C5.22386 17 5 17.2239 5 17.5V18.5Z" fill="#52525B"/>
</svg>
