<svg width="24" height="24" viewBox="0 0 24 24" fill="none" xmlns="http://www.w3.org/2000/svg">
<path d="M12 5.27344C9.46093 5.27344 6.76233 6.02822 6.76233 7.42701C6.76206 7.43381 6.76039 17.5276 6.7641 17.5338C6.87004 20.3776 17.1394 20.378 17.2366 17.5296C17.2429 17.5284 17.2341 7.42971 17.2376 7.42701C17.2376 6.02822 14.539 5.27344 12 5.27344ZM7.44964 11.8791C9.66295 13.3021 14.3365 13.3018 16.5502 11.8795L16.5501 14.1488C16.3422 15.4808 11.8561 15.8275 10.2892 15.4955C8.44521 15.2335 7.45014 14.6059 7.45014 14.1488C7.44858 14.1473 7.45021 11.8812 7.44964 11.8791ZM16.5502 10.7769C16.3356 12.1156 11.8267 12.4567 10.2662 12.1214C8.43495 11.8549 7.44999 11.2322 7.44964 10.7752V8.53332C9.41546 9.92366 14.5845 9.92357 16.5502 8.53332V10.7769ZM12 5.96076C14.8192 5.96076 16.5503 6.81487 16.5503 7.42701C16.5503 8.03914 14.8192 8.89294 12 8.89294C9.1807 8.89294 7.44965 8.03916 7.44965 7.42701C7.44965 6.81487 9.1807 5.96076 12 5.96076ZM12.0001 18.9903C9.18104 18.9903 7.45015 18.1358 7.45015 17.5234C7.44859 17.5217 7.45023 15.2537 7.44965 15.2515C9.64946 16.672 14.3506 16.6719 16.5503 15.2518L16.5501 17.5234C16.5501 18.1358 14.8192 18.9903 12.0001 18.9903Z" fill="#52525B" stroke="#52525B" stroke-width="0.4"/>
<path d="M9.23792 10.2772C9.2379 10.3223 9.24678 10.367 9.26405 10.4087C9.28132 10.4504 9.30663 10.4883 9.33854 10.5202C9.37046 10.5522 9.40835 10.5775 9.45005 10.5947C9.49175 10.612 9.53644 10.6209 9.58157 10.6209H12.7577C12.8487 10.6206 12.9358 10.5842 13 10.5198C13.0642 10.4554 13.1003 10.3682 13.1003 10.2772C13.1003 10.1863 13.0642 10.099 13 10.0346C12.9358 9.9702 12.8487 9.93386 12.7577 9.93356H9.58157C9.53644 9.93354 9.49175 9.94242 9.45005 9.95969C9.40835 9.97696 9.37046 10.0023 9.33854 10.0342C9.30663 10.0661 9.28132 10.104 9.26405 10.1457C9.24678 10.1874 9.2379 10.2321 9.23792 10.2772ZM14.247 11.1095C14.4661 11.1071 14.6755 11.0183 14.8296 10.8625C14.9837 10.7067 15.0702 10.4964 15.0702 10.2772C15.0701 10.058 14.9837 9.84772 14.8296 9.6919C14.6755 9.53608 14.4661 9.44733 14.247 9.44492C14.0278 9.44734 13.8185 9.53609 13.6644 9.69192C13.5102 9.84774 13.4238 10.0581 13.4238 10.2772C13.4238 10.4964 13.5103 10.7067 13.6644 10.8625C13.8185 11.0184 14.0278 11.1071 14.247 11.1095ZM14.247 10.1322C14.2848 10.1333 14.3206 10.149 14.347 10.1761C14.3733 10.2032 14.3881 10.2394 14.3881 10.2772C14.3881 10.315 14.3733 10.3513 14.347 10.3784C14.3206 10.4054 14.2848 10.4212 14.247 10.4222C14.2092 10.4212 14.1734 10.4054 14.147 10.3784C14.1207 10.3513 14.1059 10.315 14.1059 10.2772C14.1059 10.2394 14.1207 10.2032 14.147 10.1761C14.1734 10.149 14.2092 10.1333 14.247 10.1322ZM9.58157 14.179H12.7577C12.8477 14.1772 12.9334 14.1402 12.9964 14.0759C13.0594 14.0117 13.0946 13.9253 13.0946 13.8353C13.0946 13.7453 13.0594 13.6589 12.9964 13.5947C12.9334 13.5304 12.8477 13.4934 12.7577 13.4916H9.58157C9.49161 13.4934 9.40593 13.5304 9.34294 13.5947C9.27994 13.6589 9.24466 13.7453 9.24466 13.8353C9.24466 13.9253 9.27994 14.0117 9.34294 14.0759C9.40593 14.1402 9.49161 14.1772 9.58157 14.179ZM14.247 14.6676C14.4661 14.6651 14.6754 14.5764 14.8295 14.4205C14.9836 14.2647 15.07 14.0544 15.07 13.8353C15.07 13.6162 14.9836 13.4059 14.8295 13.25C14.6754 13.0942 14.4661 13.0055 14.247 13.003C14.0278 13.0055 13.8185 13.0942 13.6645 13.2501C13.5104 13.4059 13.424 13.6162 13.424 13.8353C13.424 14.0544 13.5104 14.2647 13.6645 14.4206C13.8186 14.5764 14.0279 14.6651 14.247 14.6676ZM14.247 13.6903C14.2848 13.6914 14.3206 13.7071 14.347 13.7342C14.3733 13.7612 14.3881 13.7975 14.3881 13.8353C14.3881 13.8731 14.3733 13.9094 14.347 13.9364C14.3206 13.9635 14.2848 13.9792 14.247 13.9803C14.2092 13.9792 14.1734 13.9635 14.147 13.9364C14.1207 13.9094 14.1059 13.8731 14.1059 13.8353C14.1059 13.7975 14.1207 13.7612 14.147 13.7342C14.1734 13.7071 14.2092 13.6914 14.247 13.6903ZM12.7577 17.0494H9.58157C9.49159 17.0511 9.40589 17.0881 9.34288 17.1524C9.27987 17.2166 9.24457 17.303 9.24457 17.393C9.24458 17.483 9.27988 17.5695 9.34289 17.6337C9.40591 17.698 9.49161 17.7349 9.58159 17.7367H12.7577C12.8477 17.7349 12.9334 17.698 12.9964 17.6337C13.0595 17.5694 13.0947 17.483 13.0947 17.393C13.0947 17.303 13.0595 17.2166 12.9964 17.1524C12.9334 17.0881 12.8477 17.0511 12.7577 17.0494ZM14.247 16.5608C14.0278 16.5632 13.8185 16.6519 13.6644 16.8078C13.5103 16.9636 13.4238 17.1739 13.4238 17.3931C13.4238 17.6122 13.5103 17.8225 13.6644 17.9784C13.8185 18.1342 14.0279 18.2229 14.247 18.2253C14.4662 18.2229 14.6755 18.1342 14.8296 17.9783C14.9837 17.8225 15.0702 17.6122 15.0702 17.393C15.0702 17.1739 14.9837 16.9636 14.8296 16.8077C14.6755 16.6519 14.4661 16.5632 14.247 16.5608ZM14.247 17.538C14.2092 17.537 14.1734 17.5213 14.147 17.4942C14.1207 17.4671 14.1059 17.4308 14.1059 17.3931C14.1059 17.3553 14.1207 17.319 14.147 17.2919C14.1734 17.2648 14.2092 17.2491 14.247 17.2481C14.2847 17.2491 14.3206 17.2649 14.3469 17.2919C14.3733 17.319 14.388 17.3553 14.388 17.393C14.388 17.4308 14.3733 17.4671 14.3469 17.4942C14.3206 17.5212 14.2847 17.537 14.247 17.538Z" fill="#52525B"/>
<path d="M5.70511 4.94923C9.47838 1.66631 15.6321 2.00159 19.0271 5.65504L17.5182 5.42545C17.429 5.41356 17.3386 5.43717 17.2666 5.49119C17.1946 5.54522 17.1467 5.62536 17.1331 5.71436C17.1196 5.80336 17.1415 5.89412 17.1942 5.96713C17.2469 6.04013 17.3261 6.08953 17.4149 6.10472L19.7587 6.46113C19.8068 6.46812 19.8558 6.46489 19.9025 6.45167C19.9492 6.43845 19.9927 6.41553 20.03 6.38441C20.0672 6.35328 20.0975 6.31465 20.1189 6.27102C20.1403 6.2274 20.1522 6.17977 20.1539 6.13123L20.2208 3.76119C20.2217 3.67113 20.1873 3.58431 20.1248 3.51942C20.0623 3.45453 19.9769 3.41674 19.8869 3.41419C19.7969 3.41165 19.7094 3.44454 19.6434 3.5058C19.5774 3.56705 19.538 3.65178 19.5338 3.74175L19.494 5.14959C15.8564 1.26424 9.2921 0.91766 5.26446 4.42177C3.67766 5.74357 2.51715 7.50508 1.92889 9.48474C1.34064 11.4644 1.35091 13.5738 1.95841 15.5476C1.98511 15.6348 2.04534 15.7077 2.12584 15.7505C2.1657 15.7716 2.20933 15.7847 2.25426 15.789C2.29918 15.7933 2.34451 15.7887 2.38766 15.7755C2.4308 15.7623 2.47092 15.7407 2.50572 15.712C2.54053 15.6832 2.56933 15.6479 2.59049 15.6081C2.61165 15.5682 2.62475 15.5246 2.62905 15.4797C2.63334 15.4347 2.62875 15.3894 2.61553 15.3463C2.04784 13.5017 2.03827 11.5305 2.58801 9.68052C3.13774 7.83055 4.22224 6.18444 5.70511 4.94923ZM21.8005 8.76036C21.7672 8.67666 21.7023 8.6094 21.6199 8.57305C21.5374 8.53671 21.444 8.5342 21.3597 8.56605C21.2754 8.5979 21.207 8.66158 21.1692 8.74337C21.1314 8.82515 21.1272 8.91852 21.1575 9.00336C23.7579 15.6325 18.1998 22.9709 11.1116 22.2328C8.87145 22.0381 6.76802 21.073 5.1593 19.502L6.40585 19.7336C6.49466 19.7483 6.5857 19.7276 6.65941 19.6759C6.73312 19.6243 6.78361 19.5457 6.80004 19.4572C6.81648 19.3687 6.79754 19.2773 6.7473 19.2026C6.69705 19.1279 6.61952 19.0759 6.53134 19.0577L4.26484 18.6365C4.21656 18.6283 4.16708 18.6304 4.11969 18.6428C4.07229 18.6551 4.02806 18.6774 3.98993 18.7081C3.95179 18.7388 3.92064 18.7773 3.89852 18.821C3.8764 18.8647 3.86382 18.9126 3.86163 18.9616C3.84562 18.9738 3.87691 21.2667 3.86898 21.2815C3.87099 21.3716 3.90832 21.4573 3.97291 21.5201C4.03751 21.583 4.1242 21.618 4.21433 21.6175C4.30446 21.6171 4.39081 21.5812 4.45478 21.5178C4.51875 21.4543 4.55522 21.3682 4.55635 21.2781L4.54982 19.8632C5.52527 20.848 6.68684 21.6291 7.96695 22.1608C9.24705 22.6925 10.6201 22.9643 12.0063 22.9605C19.2071 23.0572 24.4411 15.4709 21.8005 8.76036Z" fill="#52525B" stroke="#52525B" stroke-width="0.4"/>
</svg>
