<svg width="24" height="24" viewBox="0 0 24 24" fill="none" xmlns="http://www.w3.org/2000/svg">
<g clip-path="url(#clip0_32_163)">
<path d="M22.56 9.41249C22.0151 8.86975 21.3125 8.51327 20.5527 8.39405C19.793 8.27483 19.0149 8.39898 18.33 8.74874C17.6543 7.42336 16.5766 6.3457 15.2512 5.66999C15.5334 5.11545 15.6687 4.49779 15.644 3.87606C15.6193 3.25433 15.4356 2.64932 15.1104 2.11887C14.7851 1.58843 14.3292 1.15028 13.7863 0.846321C13.2434 0.542361 12.6316 0.382751 12.0094 0.382751C11.3872 0.382751 10.7753 0.542361 10.2324 0.846321C9.68949 1.15028 9.23362 1.58843 8.90838 2.11887C8.58313 2.64932 8.3994 3.25433 8.37473 3.87606C8.35007 4.49779 8.4853 5.11545 8.7675 5.66999C7.42377 6.34785 6.33285 7.43877 5.655 8.78249C5.10046 8.49951 4.48258 8.36358 3.86048 8.38773C3.23838 8.41188 2.63289 8.5953 2.10196 8.92042C1.57103 9.24554 1.13243 9.7015 0.828149 10.2446C0.523864 10.7878 0.364075 11.3999 0.364075 12.0225C0.364075 12.6451 0.523864 13.2572 0.828149 13.8004C1.13243 14.3435 1.57103 14.7994 2.10196 15.1246C2.63289 15.4497 3.23838 15.6331 3.86048 15.6573C4.48258 15.6814 5.10046 15.5455 5.655 15.2625C6.3307 16.5879 7.40836 17.6655 8.73375 18.3412C8.45076 18.8958 8.31484 19.5137 8.33898 20.1358C8.36313 20.7579 8.54655 21.3634 8.87167 21.8943C9.1968 22.4252 9.65275 22.8638 10.1959 23.1681C10.739 23.4724 11.3512 23.6322 11.9737 23.6322C12.5963 23.6322 13.2085 23.4724 13.7516 23.1681C14.2947 22.8638 14.7507 22.4252 15.0758 21.8943C15.4009 21.3634 15.5844 20.7579 15.6085 20.1358C15.6327 19.5137 15.4967 18.8958 15.2137 18.3412C16.5575 17.6634 17.6484 16.5725 18.3262 15.2287C19.0988 15.6308 19.99 15.7423 20.8378 15.543C21.6856 15.3437 22.4338 14.8469 22.9463 14.1427C23.4589 13.4386 23.7018 12.574 23.6309 11.7059C23.56 10.8379 23.18 10.0241 22.56 9.41249ZM9.97125 1.97249C10.3751 1.5687 10.8896 1.29372 11.4497 1.18233C12.0098 1.07094 12.5904 1.12814 13.118 1.3467C13.6456 1.56525 14.0965 1.93535 14.4138 2.41019C14.7311 2.88503 14.9004 3.44329 14.9004 4.01437C14.9004 4.58545 14.7311 5.14371 14.4138 5.61855C14.0965 6.09339 13.6456 6.46349 13.118 6.68204C12.5904 6.9006 12.0098 6.9578 11.4497 6.84641C10.8896 6.73502 10.3751 6.46004 9.97125 6.05624C9.70083 5.78938 9.48612 5.47146 9.33957 5.12094C9.19302 4.77043 9.11756 4.39429 9.11756 4.01437C9.11756 3.63445 9.19302 3.25831 9.33957 2.90779C9.48612 2.55728 9.70083 2.23936 9.97125 1.97249ZM1.9725 14.055C1.5687 13.6512 1.29372 13.1367 1.18233 12.5765C1.07094 12.0164 1.12814 11.4359 1.3467 10.9083C1.56525 10.3807 1.93535 9.92971 2.41019 9.61244C2.88503 9.29517 3.44329 9.12583 4.01437 9.12583C4.58545 9.12583 5.14371 9.29517 5.61855 9.61244C6.09339 9.92971 6.46349 10.3807 6.68205 10.9083C6.9006 11.4359 6.9578 12.0164 6.84641 12.5765C6.73502 13.1367 6.46004 13.6512 6.05625 14.055C5.51424 14.5957 4.77993 14.8993 4.01437 14.8993C3.24881 14.8993 2.5145 14.5957 1.9725 14.055ZM14.0287 22.0275C13.6249 22.4313 13.1104 22.7063 12.5503 22.8177C11.9902 22.9291 11.4096 22.8719 10.882 22.6533C10.3544 22.4347 9.90346 22.0646 9.58619 21.5898C9.26892 21.115 9.09958 20.5567 9.09958 19.9856C9.09958 19.4145 9.26892 18.8563 9.58619 18.3814C9.90346 17.9066 10.3544 17.5365 10.882 17.3179C11.4096 17.0994 11.9902 17.0422 12.5503 17.1536C13.1104 17.265 13.6249 17.5399 14.0287 17.9437C14.5694 18.4858 14.873 19.2201 14.873 19.9856C14.873 20.7512 14.5694 21.4855 14.0287 22.0275ZM14.82 17.7037C14.4795 17.2805 14.0483 16.9389 13.5584 16.7042C13.0684 16.4696 12.532 16.3477 11.9887 16.3477C11.4455 16.3477 10.9091 16.4696 10.4191 16.7042C9.92916 16.9389 9.49804 17.2805 9.1575 17.7037C7.91905 17.0912 6.91633 16.0884 6.30375 14.85C6.72765 14.5099 7.06977 14.0789 7.30485 13.5888C7.53994 13.0988 7.66198 12.5622 7.66198 12.0187C7.66198 11.4752 7.53994 10.9387 7.30485 10.4487C7.06977 9.95862 6.72765 9.52763 6.30375 9.18749C6.91849 7.93076 7.93452 6.91474 9.19125 6.29999C9.5117 6.69766 9.91223 7.02347 10.3668 7.25625C10.8214 7.48904 11.3198 7.6236 11.8298 7.65118C12.3398 7.67877 12.8499 7.59876 13.3269 7.41637C13.8039 7.23398 14.2373 6.95327 14.5987 6.59249C14.6886 6.50195 14.7737 6.40683 14.8537 6.30749C16.0922 6.92008 17.0949 7.9228 17.7075 9.16124C17.2836 9.50138 16.9415 9.93237 16.7064 10.4224C16.4713 10.9124 16.3493 11.449 16.3493 11.9925C16.3493 12.536 16.4713 13.0726 16.7064 13.5626C16.9415 14.0526 17.2836 14.4836 17.7075 14.8237C17.0921 16.0791 16.0761 17.0937 14.82 17.7075V17.7037ZM22.0275 14.025C21.6237 14.4288 21.1092 14.7038 20.549 14.8152C19.9889 14.9265 19.4084 14.8694 18.8808 14.6508C18.3532 14.4322 17.9022 14.0621 17.5849 13.5873C17.2677 13.1125 17.0983 12.5542 17.0983 11.9831C17.0983 11.412 17.2677 10.8538 17.5849 10.3789C17.9022 9.9041 18.3532 9.534 18.8808 9.31545C19.4084 9.09689 19.9889 9.03969 20.549 9.15108C21.1092 9.26247 21.6237 9.53745 22.0275 9.94124C22.5684 10.4839 22.8721 11.2188 22.8721 11.985C22.8721 12.7512 22.5684 13.4861 22.0275 14.0287V14.025Z" fill="#52525B" stroke="#52525B" stroke-width="0.55"/>
<path d="M12 3.375C11.8747 3.375 11.7521 3.41217 11.6479 3.48181C11.5437 3.55144 11.4625 3.65042 11.4145 3.76622C11.3665 3.88203 11.354 4.00945 11.3784 4.13239C11.4029 4.25532 11.4633 4.36825 11.5519 4.45688C11.6405 4.54551 11.7534 4.60587 11.8764 4.63032C11.9993 4.65478 12.1267 4.64223 12.2425 4.59426C12.3584 4.54629 12.4573 4.46506 12.527 4.36084C12.5966 4.25662 12.6338 4.13409 12.6338 4.00875C12.6338 3.84067 12.567 3.67947 12.4482 3.56062C12.3293 3.44177 12.1681 3.375 12 3.375ZM12 4.125C11.977 4.125 11.9546 4.11818 11.9354 4.10541C11.9163 4.09263 11.9014 4.07448 11.8926 4.05324C11.8838 4.03199 11.8815 4.00862 11.886 3.98607C11.8905 3.96352 11.9016 3.94281 11.9178 3.92655C11.9341 3.91029 11.9548 3.89922 11.9773 3.89473C11.9999 3.89025 12.0233 3.89255 12.0445 3.90135C12.0658 3.91015 12.0839 3.92505 12.0967 3.94417C12.1095 3.96328 12.1163 3.98576 12.1163 4.00875C12.1163 4.02402 12.1133 4.03913 12.1074 4.05324C12.1016 4.06734 12.093 4.08016 12.0822 4.09095C12.0714 4.10175 12.0586 4.11031 12.0445 4.11615C12.0304 4.12199 12.0153 4.125 12 4.125Z" fill="#52525B"/>
<path d="M10.53 5.8725H13.5C13.5995 5.8725 13.6948 5.83299 13.7652 5.76267C13.8355 5.69234 13.875 5.59696 13.875 5.4975V2.53125C13.875 2.43179 13.8355 2.33641 13.7652 2.26609C13.6948 2.19576 13.5995 2.15625 13.5 2.15625H10.53C10.4305 2.15625 10.3352 2.19576 10.2648 2.26609C10.1945 2.33641 10.155 2.43179 10.155 2.53125V5.4975C10.155 5.59696 10.1945 5.69234 10.2648 5.76267C10.3352 5.83299 10.4305 5.8725 10.53 5.8725ZM10.905 2.90625H13.125V5.1225H10.905V2.90625ZM4.87501 12.2738C4.97446 12.2738 5.06984 12.2342 5.14017 12.1639C5.2105 12.0936 5.25001 11.9982 5.25001 11.8988C5.25001 11.7993 5.2105 11.7039 5.14017 11.6336C5.06984 11.5633 4.97446 11.5238 4.87501 11.5238H3.53626V10.53C3.53626 10.4305 3.49675 10.3352 3.42642 10.2648C3.35609 10.1945 3.26071 10.155 3.16126 10.155C3.0618 10.155 2.96642 10.1945 2.89609 10.2648C2.82576 10.3352 2.78625 10.4305 2.78625 10.53V12.9675C2.78625 13.2075 2.88135 13.4378 3.05073 13.6079C3.22011 13.778 3.44997 13.874 3.69001 13.875H4.84125C4.94071 13.875 5.03609 13.8355 5.10642 13.7652C5.17675 13.6948 5.21626 13.5995 5.21626 13.5C5.21626 13.4005 5.17675 13.3052 5.10642 13.2348C5.03609 13.1645 4.94071 13.125 4.84125 13.125H3.69001C3.64888 13.125 3.60937 13.1089 3.57994 13.0802C3.55051 13.0515 3.53348 13.0124 3.53251 12.9713V12.2738H4.87501ZM20.4825 10.875C20.582 10.875 20.6773 10.8355 20.7477 10.7652C20.818 10.6948 20.8575 10.5995 20.8575 10.5C20.8575 10.4005 20.818 10.3052 20.7477 10.2348C20.6773 10.1645 20.582 10.125 20.4825 10.125C20.1218 10.127 19.7765 10.2717 19.5222 10.5274C19.2678 10.7832 19.125 11.1293 19.125 11.49V13.4663C19.125 13.5657 19.1645 13.6611 19.2348 13.7314C19.3052 13.8017 19.4005 13.8413 19.5 13.8413C19.5995 13.8413 19.6948 13.8017 19.7652 13.7314C19.8355 13.6611 19.875 13.5657 19.875 13.4663V12.375H20.49C20.5895 12.375 20.6848 12.3355 20.7552 12.2652C20.8255 12.1948 20.865 12.0995 20.865 12C20.865 11.9005 20.8255 11.8052 20.7552 11.7348C20.6848 11.6645 20.5895 11.625 20.49 11.625H19.875V11.505C19.873 11.4236 19.8872 11.3426 19.9167 11.2668C19.9463 11.1909 19.9906 11.1217 20.0471 11.0631C20.1036 11.0045 20.1712 10.9577 20.246 10.9254C20.3207 10.8931 20.4011 10.876 20.4825 10.875ZM13.0388 18.7238C12.7275 18.75 12.6375 18.5925 12.615 18.4575C12.6121 18.4083 12.5994 18.3601 12.5779 18.3157C12.5563 18.2713 12.5262 18.2317 12.4893 18.1989C12.4523 18.1662 12.4094 18.1411 12.3627 18.1249C12.3161 18.1088 12.2668 18.102 12.2175 18.105C12.1683 18.108 12.1201 18.1206 12.0757 18.1422C12.0313 18.1637 11.9917 18.1938 11.9589 18.2307C11.9262 18.2677 11.9011 18.3107 11.8849 18.3573C11.8688 18.4039 11.8621 18.4533 11.865 18.5025V19.8C11.7692 19.7694 11.6694 19.753 11.5688 19.7513C11.3618 19.7513 11.1595 19.8126 10.9875 19.9276C10.8154 20.0425 10.6813 20.2059 10.6021 20.3971C10.523 20.5883 10.5022 20.7987 10.5426 21.0016C10.583 21.2046 10.6826 21.391 10.8289 21.5373C10.9753 21.6836 11.1617 21.7833 11.3646 21.8236C11.5676 21.864 11.778 21.8433 11.9691 21.7641C12.1603 21.6849 12.3237 21.5508 12.4387 21.3788C12.5536 21.2067 12.615 21.0044 12.615 20.7975V19.425C12.772 19.47 12.9361 19.4852 13.0988 19.47C13.1977 19.4614 13.2891 19.414 13.3531 19.338C13.4171 19.2621 13.4483 19.1639 13.44 19.065C13.4314 18.9668 13.3845 18.8759 13.3094 18.8121C13.2343 18.7482 13.1371 18.7165 13.0388 18.7238ZM11.5725 21.0975C11.5139 21.0975 11.4566 21.0801 11.4079 21.0476C11.3592 21.015 11.3212 20.9688 11.2988 20.9146C11.2764 20.8605 11.2705 20.8009 11.2819 20.7435C11.2934 20.686 11.3216 20.6332 11.363 20.5918C11.4045 20.5503 11.4572 20.5221 11.5147 20.5107C11.5722 20.4993 11.6317 20.5051 11.6859 20.5276C11.74 20.55 11.7863 20.5879 11.8188 20.6367C11.8514 20.6854 11.8688 20.7427 11.8688 20.8013C11.8678 20.8792 11.8361 20.9536 11.7807 21.0083C11.7252 21.0631 11.6504 21.0938 11.5725 21.0938V21.0975ZM15.4388 14.3025H14.8463V10.02C14.8463 9.92054 14.8067 9.82516 14.7364 9.75484C14.6661 9.68451 14.5707 9.645 14.4713 9.645C14.3718 9.645 14.2764 9.68451 14.2061 9.75484C14.1358 9.82516 14.0963 9.92054 14.0963 10.02V14.3025H13.2038V11.19C13.2038 11.0905 13.1642 10.9952 13.0939 10.9248C13.0236 10.8545 12.9282 10.815 12.8288 10.815C12.7293 10.815 12.6339 10.8545 12.5636 10.9248C12.4933 10.9952 12.4538 11.0905 12.4538 11.19V14.3025H11.5538V11.9288C11.5538 11.8293 11.5142 11.7339 11.4439 11.6636C11.3736 11.5933 11.2782 11.5538 11.1788 11.5538C11.0793 11.5538 10.9839 11.5933 10.9136 11.6636C10.8433 11.7339 10.8038 11.8293 10.8038 11.9288V14.3025H9.90376V12.75C9.90376 12.6505 9.86425 12.5552 9.79392 12.4848C9.72359 12.4145 9.62821 12.375 9.52876 12.375C9.4293 12.375 9.33392 12.4145 9.26359 12.4848C9.19326 12.5552 9.15376 12.6505 9.15376 12.75V14.31H8.56126C8.4618 14.31 8.36642 14.3495 8.29609 14.4198C8.22576 14.4902 8.18626 14.5855 8.18626 14.685C8.18626 14.7845 8.22576 14.8798 8.29609 14.9502C8.36642 15.0205 8.4618 15.06 8.56126 15.06H15.4388C15.5382 15.06 15.6336 15.0205 15.7039 14.9502C15.7742 14.8798 15.8138 14.7845 15.8138 14.685C15.8138 14.5855 15.7742 14.4902 15.7039 14.4198C15.6336 14.3495 15.5382 14.31 15.4388 14.31V14.3025ZM9.52876 11.7938C9.59445 11.7942 9.6591 11.7774 9.71626 11.745L14.6588 8.9025C14.7404 8.85061 14.7988 8.76919 14.8218 8.67525C14.8448 8.58131 14.8306 8.4821 14.7822 8.39837C14.7338 8.31463 14.655 8.25283 14.5621 8.22588C14.4692 8.19893 14.3695 8.20892 14.2838 8.25375L9.34126 11.0925C9.26901 11.1334 9.2124 11.1972 9.1803 11.2738C9.14819 11.3503 9.14241 11.4354 9.16386 11.5156C9.18531 11.5958 9.23277 11.6667 9.29881 11.717C9.36485 11.7673 9.44572 11.7943 9.52876 11.7938Z" fill="#52525B" stroke="#52525B" stroke-width="0.3"/>
</g>
<defs>
<clipPath id="clip0_32_163">
<rect width="24" height="24" fill="white"/>
</clipPath>
</defs>
</svg>
