<svg width="90" height="22" viewBox="0 0 90 22" fill="none" xmlns="http://www.w3.org/2000/svg">
<g clip-path="url(#clip0_16_135)">
<path d="M8.50419 18.5151C8.08262 18.6033 7.65287 18.6465 7.22217 18.644C5.57289 18.644 5.01628 18.0737 5.01628 16.3822V7.04764H9.7018V4.70146H5.01857V0.753906H2.55605V4.70146H0V7.04764H2.55605V16.4381C2.55605 19.4595 4.08785 20.9913 7.10811 20.9913C7.85193 20.994 8.5936 20.9113 9.31856 20.7449L9.90026 20.6126V18.5025H8.57262L8.50419 18.5151Z" fill="#4DB2E0"/>
<path d="M18.8084 4.39062C16.7987 4.39062 15.1357 5.10691 13.9929 6.41288L13.937 4.702H11.6147V5.92927L11.7288 9.74452V20.7888H14.1879V11.436C14.505 7.3915 17.1101 6.78699 18.6362 6.78699C19.2262 6.78807 19.8123 6.88357 20.3721 7.06985L20.4862 7.10407H21.8321V4.95407L21.2972 4.78869C20.492 4.53271 19.6532 4.39854 18.8084 4.39062Z" fill="#4DB2E0"/>
<path d="M37.5593 4.70312H35.099V13.6362C34.9154 16.9222 33.2251 18.7312 30.3371 18.7312C28.8829 18.7312 27.7058 18.2441 26.9359 17.3248C26.2116 16.4557 25.8592 15.1725 25.8592 13.4012V4.70312H23.3989V13.5153C23.3989 15.8797 23.9065 17.5769 24.9957 18.8543C26.2173 20.3063 28.0639 21.1059 30.1945 21.1059C32.2784 21.1059 34.0805 20.2926 35.277 18.8886L35.3545 20.7933H37.671V19.5638L37.557 15.7474L37.5593 4.70312Z" fill="#4DB2E0"/>
<path d="M55.7049 12.0953V12.0553C55.4597 7.47134 52.3402 4.39062 47.9489 4.39062C43.2452 4.39062 39.9648 7.81237 39.9648 12.7169C39.9648 17.6545 43.2839 21.1024 48.0379 21.1024C50.919 21.1024 53.3462 19.8227 54.6978 17.5906L54.8061 17.4127V16.0907H52.7314L52.5113 16.4329C51.5509 17.9351 50.002 18.7289 48.0288 18.7289C44.9868 18.7289 42.838 16.7352 42.4912 13.6921H55.7049V12.0953ZM42.5243 11.4337C42.879 8.59367 44.9777 6.7368 47.9444 6.7368C50.8221 6.7368 52.8044 8.55489 53.1614 11.4337H42.5243Z" fill="#4DB2E0"/>
<path d="M58.854 17.1783V0.0546875H59.8201L59.7916 17.0357C59.7916 18.6325 60.558 19.3648 62.148 19.3648C62.4435 19.3632 62.7383 19.3346 63.0285 19.2792H63.4163V20.0776C62.9822 20.201 62.532 20.2587 62.0807 20.2487C59.8988 20.2453 58.854 19.2222 58.854 17.1783Z" fill="#1F1F1F"/>
<path d="M84.1501 16.4398V6.30234H81.5952V5.45032H84.1501V1.50391H85.1162V5.45032H89.8017V6.30234H85.1162V16.384C85.1162 18.4849 85.9967 19.394 88.0692 19.394C88.5462 19.3962 89.0221 19.3484 89.4892 19.2514H90.0002V20.0179C89.3295 20.1721 88.6433 20.2486 87.9551 20.246C85.3158 20.246 84.1501 19.0529 84.1501 16.4398Z" fill="#1F1F1F"/>
<path d="M77.0373 -0.00188822C77.6673 -0.00433154 78.2957 0.0622189 78.9113 0.196573L78.8828 0.994982H78.4847C78.0265 0.903218 77.5605 0.855854 77.0932 0.853549C74.9637 0.853549 74.1972 1.81848 74.1972 3.92058V5.4444H78.8828V6.29641H74.1972V20.2457H73.2323V6.29641H70.6763V5.4444H73.2323V3.8031C73.2323 1.21968 74.3957 -0.00188822 77.0373 -0.00188822Z" fill="#1F1F1F"/>
<path d="M66.7437 5.45117H67.7086V20.0506H66.7437V5.45117Z" fill="#1F1F1F"/>
<path d="M79.7691 5.33008H73.221V6.55735H79.7691V5.33008Z" fill="#1F1F1F"/>
<path d="M64.8379 3.74935L67.2422 0.0664062L69.496 3.74935" fill="#4DB2E0"/>
</g>
<defs>
<clipPath id="clip0_16_135">
<rect width="90" height="21.1076" fill="white"/>
</clipPath>
</defs>
</svg>
