<svg width="24" height="24" viewBox="0 0 24 24" fill="none" xmlns="http://www.w3.org/2000/svg">
<path fill-rule="evenodd" clip-rule="evenodd" d="M3.3272 3.00004C3.24225 3.00139 3.1613 3.03636 3.10208 3.09727C3.04285 3.15818 3.01017 3.24008 3.0112 3.32503V20.5831C2.99588 20.6395 2.99628 20.6991 3.01236 20.7554C3.02843 20.8116 3.05957 20.8624 3.10241 20.9023C3.14226 20.9434 3.19241 20.9732 3.24763 20.9884C3.30286 21.0037 3.36115 21.0039 3.41648 20.989H20.6739C20.759 20.989 20.8407 20.9552 20.9009 20.8949C20.9612 20.8347 20.995 20.753 20.995 20.6678C20.995 20.5827 20.9612 20.501 20.9009 20.4408C20.8407 20.3805 20.759 20.3467 20.6739 20.3467H3.65348V3.32503C3.654 3.2821 3.64591 3.2395 3.62968 3.19975C3.61345 3.16 3.58942 3.12391 3.559 3.09361C3.52858 3.06331 3.49239 3.03942 3.45258 3.02335C3.41277 3.00728 3.37013 2.99935 3.3272 3.00004ZM20.0367 6.87041C19.5081 6.87041 19.0733 7.30524 19.0733 7.83383C19.0733 7.9989 19.1202 8.1524 19.1953 8.28921L14.6249 13.3671C14.5005 13.3149 14.3664 13.29 14.2316 13.2938C14.0968 13.2977 13.9644 13.3303 13.8432 13.3895L11.91 11.4563C11.971 11.331 12.0082 11.1929 12.0082 11.0452C12.0082 10.5166 11.5728 10.0818 11.0448 10.0818C10.5162 10.0818 10.0814 10.5166 10.0814 11.0452C10.0814 11.173 10.1077 11.2944 10.154 11.4062L5.72547 15.344C5.58488 15.2639 5.42611 15.2212 5.26432 15.22C4.73572 15.22 4.3009 15.6549 4.3009 16.1835C4.3009 16.7114 4.73572 17.1469 5.26432 17.1469C5.79227 17.1469 6.22773 16.7114 6.22773 16.1835C6.22718 16.0593 6.2023 15.9364 6.15452 15.8219L10.5843 11.8847C10.7218 11.9605 10.8772 12.0086 11.0448 12.0086C11.1925 12.0086 11.3306 11.9707 11.4559 11.9104L13.3904 13.8449C13.3274 13.9728 13.294 14.1134 13.2928 14.256C13.2928 14.7846 13.7276 15.2194 14.2562 15.2194C14.7842 15.2194 15.2196 14.7846 15.2196 14.256C15.2196 14.0909 15.1728 13.9361 15.0976 13.8L19.6687 8.72146C19.7824 8.76899 19.9063 8.79725 20.0367 8.79725C20.5647 8.79725 21.0001 8.36178 21.0001 7.83383C21.0001 7.30524 20.5647 6.87041 20.0367 6.87041ZM20.0367 7.51269C20.2178 7.51269 20.3579 7.65271 20.3579 7.83383C20.3579 8.01495 20.2178 8.15497 20.0367 8.15497C19.9944 8.15558 19.9524 8.14768 19.9131 8.13176C19.8739 8.11583 19.8382 8.0922 19.8083 8.06226C19.7784 8.03232 19.7547 7.99667 19.7388 7.95744C19.7229 7.9182 19.715 7.87617 19.7156 7.83383C19.7156 7.65271 19.8556 7.51269 20.0367 7.51269ZM11.0448 10.7241C11.2259 10.7241 11.366 10.8641 11.366 11.0452C11.366 11.2263 11.2259 11.3664 11.0448 11.3664C10.9663 11.3657 10.8908 11.336 10.8329 11.2829C10.8215 11.2676 10.8088 11.2535 10.795 11.2405C10.7568 11.1938 10.7327 11.1371 10.7257 11.0772C10.7186 11.0173 10.7288 10.9566 10.755 10.9023C10.7813 10.848 10.8225 10.8023 10.8738 10.7706C10.9252 10.7389 10.9845 10.7225 11.0448 10.7234V10.7241ZM14.2562 13.9355C14.4373 13.9355 14.5774 14.0755 14.5774 14.2566C14.5774 14.4377 14.4373 14.5778 14.2562 14.5778C14.2139 14.5784 14.1718 14.5705 14.1326 14.5545C14.0934 14.5386 14.0577 14.515 14.0278 14.485C13.9978 14.4551 13.9742 14.4195 13.9583 14.3802C13.9424 14.341 13.9345 14.299 13.9351 14.2566C13.9351 14.0755 14.0751 13.9355 14.2562 13.9355ZM5.26432 15.8623C5.35424 15.8623 5.43452 15.8964 5.49233 15.9535C5.55013 16.0113 5.58546 16.0929 5.58546 16.1835C5.58546 16.3646 5.44544 16.5046 5.26432 16.5046C5.22198 16.5052 5.17994 16.4973 5.14071 16.4814C5.10147 16.4655 5.06583 16.4418 5.03589 16.4119C5.00595 16.3819 4.98231 16.3463 4.96639 16.3071C4.95046 16.2678 4.94257 16.2258 4.94318 16.1835C4.94318 16.0023 5.08319 15.8623 5.26432 15.8623Z" fill="#27272A" stroke="#27272A" stroke-width="0.4"/>
</svg>
